<svg width="14" height="14" viewBox="0 0 14 14" fill="none" xmlns="http://www.w3.org/2000/svg"
  aria-label="YouTube Logo">
  <path
    d="M7.03863 2.5H7.10538C7.72192 2.5024 10.8459 2.52643 11.6882 2.76826C11.9428 2.84207 12.1748 2.98593 12.3611 3.18548C12.5473 3.38502 12.6813 3.63326 12.7495 3.90537C12.8252 4.20967 12.8785 4.61247 12.9145 5.02807L12.922 5.11135L12.9385 5.31956L12.9445 5.40284C12.9932 6.13475 12.9992 6.82022 13 6.96997V7.03003C12.9992 7.18538 12.9925 7.9173 12.9385 8.67964L12.9325 8.76372L12.9257 8.84701C12.8882 9.30505 12.8327 9.7599 12.7495 10.0946C12.6815 10.3669 12.5476 10.6152 12.3613 10.8148C12.1751 11.0144 11.9429 11.1582 11.6882 11.2317C10.8181 11.4816 7.51116 11.4992 7.05288 11.5H6.94637C6.71461 11.5 5.75605 11.4952 4.75098 11.4584L4.62348 11.4536L4.55822 11.4504L4.42996 11.4447L4.30171 11.4391C3.46915 11.3999 2.67635 11.3366 2.31108 11.2309C2.05643 11.1574 1.82435 11.0138 1.63808 10.8143C1.45182 10.6149 1.3179 10.3667 1.24977 10.0946C1.16651 9.7607 1.11101 9.30505 1.0735 8.84701L1.0675 8.76292L1.0615 8.67964C1.02449 8.13703 1.00398 7.59328 1 7.04925L1 6.95075C1.0015 6.77858 1.0075 6.1836 1.048 5.52696L1.05325 5.44448L1.0555 5.40284L1.0615 5.31956L1.078 5.11135L1.08551 5.02807C1.12151 4.61247 1.17476 4.20887 1.25052 3.90537C1.31854 3.63315 1.4524 3.38479 1.63867 3.18522C1.82495 2.98564 2.05709 2.84185 2.31183 2.76826C2.6771 2.66416 3.4699 2.6001 4.30246 2.56006L4.42996 2.55445L4.55897 2.54965L4.62348 2.54725L4.75173 2.54164C5.46556 2.51712 6.17968 2.5035 6.89387 2.5008L7.03863 2.5ZM6 5.02807V9L9 7.03003L6 5.02807Z"
    fill="currentColor"></path>
</svg>